<?xml version="1.0" encoding="UTF-8"?>
<svg width="193px" height="193px" viewBox="0 0 193 193" version="1.1" xmlns="http://www.w3.org/2000/svg" xmlns:xlink="http://www.w3.org/1999/xlink">
    <!-- Generator: Sketch 46.2 (44496) - http://www.bohemiancoding.com/sketch -->
    <title>QuiltBack - Full Logo Site</title>
    <desc>Created with Sketch.</desc>
    <defs></defs>
    <g id="Page-1" stroke="none" stroke-width="1" fill="none" fill-rule="evenodd">
        <g id="HOME" transform="translate(-262.000000, -178.000000)">
            <g id="Banner-Image">
                <g id="QuiltBack---Full-Logo-Site" transform="translate(262.000000, 178.000000)">
                    <rect id="Rectangle-3" fill="#D93044" fill-rule="evenodd" x="64.3333333" y="64.3333333" width="64.3333333" height="64.3333333"></rect>
                    <text id="QUILT" font-family="BloggerSans-Bold, Blogger Sans" font-size="23.3208333" font-style="condensed" font-weight="bold" fill="#FFFFFF">
                        <tspan x="67.7192771" y="91.1791667">QUILT</tspan>
                    </text>
                    <text id="BACK" font-family="BloggerSans-Bold, Blogger Sans" font-size="23.3208333" font-style="condensed" font-weight="bold" letter-spacing="1.4474999" fill="#FFFFFF">
                        <tspan x="67.6207668" y="118.520833">BAC</tspan>
                        <tspan x="111.608683" y="118.520833">K</tspan>
                    </text>
                    <g id="Group" stroke-width="1" fill-rule="evenodd" transform="translate(64.333333, 0.000000)" fill="#D93044">
                        <polygon id="Triangle" transform="translate(16.083333, 32.166667) rotate(90.000000) translate(-16.083333, -32.166667) " points="16.0833333 16.0833333 48.25 48.25 -16.0833333 48.25"></polygon>
                        <polygon id="Triangle" transform="translate(48.250000, 32.166667) rotate(-90.000000) translate(-48.250000, -32.166667) " points="48.25 16.0833333 80.4166667 48.25 16.0833333 48.25"></polygon>
                    </g>
                    <g id="Group" stroke-width="1" fill-rule="evenodd" transform="translate(160.833333, 96.500000) rotate(90.000000) translate(-160.833333, -96.500000) translate(128.666667, 64.333333)" fill="#D93044">
                        <polygon id="Triangle" transform="translate(16.083333, 32.166667) rotate(90.000000) translate(-16.083333, -32.166667) " points="16.0833333 16.0833333 48.25 48.25 -16.0833333 48.25"></polygon>
                        <polygon id="Triangle" transform="translate(48.250000, 32.166667) rotate(-90.000000) translate(-48.250000, -32.166667) " points="48.25 16.0833333 80.4166667 48.25 16.0833333 48.25"></polygon>
                    </g>
                    <g id="Group" stroke-width="1" fill-rule="evenodd" transform="translate(32.166667, 96.500000) rotate(90.000000) translate(-32.166667, -96.500000) translate(0.000000, 64.333333)" fill="#D93044">
                        <polygon id="Triangle" transform="translate(16.083333, 32.166667) rotate(90.000000) translate(-16.083333, -32.166667) " points="16.0833333 16.0833333 48.25 48.25 -16.0833333 48.25"></polygon>
                        <polygon id="Triangle" transform="translate(48.250000, 32.166667) rotate(-90.000000) translate(-48.250000, -32.166667) " points="48.25 16.0833333 80.4166667 48.25 16.0833333 48.25"></polygon>
                    </g>
                    <g id="Group" stroke-width="1" fill-rule="evenodd" transform="translate(64.333333, 128.666667)" fill="#D93044">
                        <polygon id="Triangle" transform="translate(16.083333, 32.166667) rotate(90.000000) translate(-16.083333, -32.166667) " points="16.0833333 16.0833333 48.25 48.25 -16.0833333 48.25"></polygon>
                        <polygon id="Triangle" transform="translate(48.250000, 32.166667) rotate(-90.000000) translate(-48.250000, -32.166667) " points="48.25 16.0833333 80.4166667 48.25 16.0833333 48.25"></polygon>
                    </g>
                </g>
            </g>
        </g>
    </g>
</svg>