<svg className="discover-icon" width="174px" height="159px" viewBox="0 0 174 159" version="1.1" xmlns="http://www.w3.org/2000/svg" xmlns:xlink="http://www.w3.org/1999/xlink">
    <!-- Generator: Sketch 46.2 (44496) - http://www.bohemiancoding.com/sketch -->
    <title>Discover Image</title>
    <desc>Created with Sketch.</desc>
    <defs>
        <rect id="path-1" x="0" y="0" width="98.9801325" height="131.622517" rx="5.26490066"></rect>
        <rect id="path-2" x="14.7417219" y="13.6887417" width="98.9801325" height="131.622517" rx="5.26490066"></rect>
        <rect id="path-3" x="30.5364238" y="27.3774834" width="98.9801325" height="131.622517" rx="5.26490066"></rect>
    </defs>
    <g id="Page-1" stroke="none" stroke-width="1" fill="none" fill-rule="evenodd">
        <g id="HOME" transform="translate(-183.000000, -625.000000)">
            <g id="Host-Event" transform="translate(0.000000, 475.000000)">
                <g id="Discover-Image" transform="translate(183.000000, 150.000000)">
                    <g id="Group">
                        <g id="Rectangle-2">
                            <use fill="#F7F7F7" fill-rule="evenodd" xlink:href="#path-1"></use>
                            <rect stroke="#D93044" stroke-width="4.21192053" x="2.10596026" y="2.10596026" width="94.7682119" height="127.410596" rx="5.26490066"></rect>
                        </g>
                        <g id="Rectangle-2">
                            <use fill="#F7F7F7" fill-rule="evenodd" xlink:href="#path-2"></use>
                            <rect stroke="#D93044" stroke-width="4.21192053" x="16.8476821" y="15.794702" width="94.7682119" height="127.410596" rx="5.26490066"></rect>
                        </g>
                        <g id="Rectangle-2">
                            <use fill="#F7F7F7" fill-rule="evenodd" xlink:href="#path-3"></use>
                            <rect stroke="#D93044" stroke-width="4.21192053" x="32.6423841" y="29.4834437" width="94.7682119" height="127.410596" rx="5.26490066"></rect>
                        </g>
                        <g id="Search" transform="translate(80.026490, 65.284768)">
                            <path d="M66.9483826,63.0421314 L92.9070572,88.1101321 C93.9586376,89.1256314 93.987887,90.8013306 92.9723877,91.852911 C91.9568883,92.9044913 90.2811891,92.9337408 89.2296088,91.9182414 L63.2163538,66.7975331 C56.5110776,72.6717719 47.7279965,76.2320872 38.1134167,76.2320872 C17.0639579,76.2320872 0,59.1669532 0,38.1160436 C0,17.065134 17.0639579,0 38.1134167,0 C59.1628754,0 76.2268333,17.065134 76.2268333,38.1160436 C76.2268333,47.6461652 72.7295169,56.3593885 66.9483826,63.0421314 Z M38.1134167,67.7618553 C54.4852179,67.7618553 67.7571852,54.4889733 67.7571852,38.1160436 C67.7571852,21.7431139 54.4852179,8.47023191 38.1134167,8.47023191 C21.7416154,8.47023191 8.46964815,21.7431139 8.46964815,38.1160436 C8.46964815,54.4889733 21.7416154,67.7618553 38.1134167,67.7618553 Z" id="Combined-Shape" fill="#D93044"></path>
                            <circle id="Oval-4" fill="#F7F7F7" cx="37.9072848" cy="37.9072848" r="33.6953642"></circle>
                        </g>
                    </g>
                </g>
            </g>
        </g>
    </g>
</svg>