<?xml version="1.0" encoding="UTF-8"?>
<svg width="175px" height="159px" viewBox="0 0 175 159" version="1.1" xmlns="http://www.w3.org/2000/svg" xmlns:xlink="http://www.w3.org/1999/xlink">
    <!-- Generator: Sketch 46.2 (44496) - http://www.bohemiancoding.com/sketch -->
    <title>Promote Image - Flat</title>
    <desc>Created with Sketch.</desc>
    <defs>
        <path d="M4.45805496,53.8870233 L36.0510801,38.270626 L49.587321,105.338371 L16.8402735,106.096927 C13.4382432,106.529907 10.2695053,104.290832 9.5411884,100.939291 L0.399237627,61.4546531 C-0.291217367,58.2773436 1.42939956,55.0692682 4.45805496,53.8870233 Z" id="path-1"></path>
        <path d="M28.7763364,38.4310085 C25.6807935,39.7201877 23.9357651,43.039682 24.6154611,46.3460672 L36.2030798,102.714103 C36.9130534,106.167773 40.0495352,108.569903 43.5445612,108.336707 L139.283999,101.852324 L124.184127,0.794246589 L28.7763364,38.4310085 Z" id="path-2"></path>
        <path d="M139.283999,101.852324 C130.341111,103.714389 119.708708,82.5920206 115.541241,54.6825391 C111.373775,26.7730576 115.241239,2.64236731 124.184127,0.780301694 C133.127015,-1.08176392 143.758837,20.0299215 147.926304,47.939403 C152.09377,75.8488845 148.226887,99.9902579 139.283999,101.852324 Z" id="path-3"></path>
        <path d="M44.2282106,104.346165 L64.0509352,103.043621 L79.4390792,127.453564 C80.7481331,129.645508 80.0325696,132.483723 77.8408233,133.792895 C77.7981467,133.818387 77.7550617,133.843188 77.7115851,133.86729 L68.1412125,139.172712 C65.9083829,140.410501 63.0949808,139.603698 61.8573032,137.370668 L44.2282106,104.346165 Z" id="path-4"></path>
    </defs>
    <g id="Page-1" stroke="none" stroke-width="1" fill="none" fill-rule="evenodd">
        <g id="HOME" transform="translate(-633.000000, -625.000000)">
            <g id="Host-Event" transform="translate(0.000000, 475.000000)">
                <g id="Promote-Image---Flat" transform="translate(633.000000, 150.000000)">
                    <g id="Group-2" stroke-width="1" transform="translate(0.000000, 18.464516)">
                        <g id="Group">
                            <g id="Rectangle">
                                <use fill="#F7F7F7" fill-rule="evenodd" xlink:href="#path-1"></use>
                                <path stroke="#D93044" stroke-width="4.10322581" d="M47.091819,103.344014 L34.5679598,41.2922967 L5.3671662,55.7262167 L5.20408446,55.7981893 C3.11474591,56.613769 1.92771726,58.8269737 2.39797669,60.9918814 L11.5460107,100.503627 C12.0484617,102.815787 14.2344182,104.360415 16.581252,104.061731 L16.7927625,104.045864 L47.091819,103.344014 Z"></path>
                            </g>
                            <g id="Rectangle-7">
                                <use fill="#F7F7F7" fill-rule="evenodd" xlink:href="#path-2"></use>
                                <path stroke="#D93044" stroke-width="4.10322581" d="M29.548768,40.3317735 C27.3723121,41.247304 26.1438676,43.5922327 26.6250514,45.9329542 L38.2126701,102.30099 C38.7166553,104.752628 40.9386769,106.454403 43.4059241,106.289783 L136.926221,99.9557014 L122.536397,3.64972411 L29.548768,40.3317735 Z"></path>
                            </g>
                            <g id="Oval-5">
                                <use fill="#F7F7F7" fill-rule="evenodd" xlink:href="#path-3"></use>
                                <path stroke="#D93044" stroke-width="4.10322581" d="M138.865787,99.8437882 C146.176324,98.3216065 149.902905,75.068646 145.897187,48.2423923 C141.906634,21.5176987 131.729554,1.30482618 124.602339,2.788837 C117.291256,4.31113218 113.564832,27.5545886 117.570358,54.3795498 C121.561258,81.1065729 131.739596,101.327586 138.865787,99.8437882 Z"></path>
                            </g>
                            <path d="M123.879535,65.5173261 C126.626375,64.9334145 127.734394,59.1963497 126.354364,52.7032331 C124.974334,46.2101164 121.628844,41.4197592 118.882004,42.0036708 C116.135164,42.5875823 115.027145,48.3246472 116.407175,54.8177638 C117.787205,61.3108804 121.132695,66.1012376 123.879535,65.5173261 Z" id="Oval-6" fill="#D93044"></path>
                        </g>
                        <g id="Rectangle-8">
                            <use fill="#F7F7F7" fill-rule="evenodd" xlink:href="#path-4"></use>
                            <path stroke="#D93044" stroke-width="4.10322581" d="M47.5353618,106.18489 L63.6517223,136.376095 C64.3400933,137.618061 65.9047337,138.066755 67.1465022,137.378369 L76.7168748,132.072947 C76.7410545,132.059542 76.7650164,132.045749 76.7887512,132.031572 C78.0077832,131.303421 78.4058028,129.724714 77.7035438,128.547654 L62.9667279,105.170901 L47.5353618,106.18489 Z"></path>
                        </g>
                    </g>
                    <rect id="Rectangle-9" fill="#D93044" transform="translate(139.645848, 9.181078) rotate(-45.000000) translate(-139.645848, -9.181078) " x="128.87488" y="7.12946516" width="21.5419355" height="4.10322581" rx="2.0516129"></rect>
                    <rect id="Rectangle-9-Copy-2" fill="#D93044" transform="translate(156.308971, 122.096031) scale(1, -1) rotate(-35.000000) translate(-156.308971, -122.096031) " x="145.538003" y="120.044418" width="21.5419355" height="4.10322581" rx="2.0516129"></rect>
                    <rect id="Rectangle-9-Copy" fill="#D93044" x="153.268674" y="82.1392947" width="21.5419355" height="4.10322581" rx="2.0516129"></rect>
                    <rect id="Rectangle-9-Copy-3" fill="#D93044" transform="translate(157.327566, 40.783224) rotate(-20.000000) translate(-157.327566, -40.783224) " x="146.556598" y="38.7316115" width="21.5419355" height="4.10322581" rx="2.0516129"></rect>
                </g>
            </g>
        </g>
    </g>
</svg>