<?xml version="1.0" encoding="UTF-8"?>
<svg width="174px" height="160px" viewBox="0 0 174 160" version="1.1" xmlns="http://www.w3.org/2000/svg" xmlns:xlink="http://www.w3.org/1999/xlink">
    <!-- Generator: Sketch 46.2 (44496) - http://www.bohemiancoding.com/sketch -->
    <title>Share Image</title>
    <desc>Created with Sketch.</desc>
    <defs>
        <path d="M102.916303,139.48759 L167.772585,139.48759 C170.661179,139.48759 173.002848,137.145922 173.002848,134.257327 L173.002848,134.257327 L173.002848,93.0986842 C173.002848,90.2100896 170.661179,87.8684211 167.772585,87.8684211 L167.772585,87.8684211 L58.2594942,87.8684211 L58.2594942,87.8684211 C55.3708996,87.8684211 53.029231,90.2100896 53.029231,93.0986842 L53.029231,93.0986842 L53.029231,134.257327 C53.029231,137.145922 55.3708996,139.48759 58.2594942,139.48759 L63.260809,139.48759 L54.2262935,150.52797 C52.9698903,152.063322 52.6903107,154.177352 53.5044015,155.986527 C54.6897329,158.620719 57.7860685,159.795253 60.4202606,158.609921 L102.916303,139.48759 Z" id="path-1"></path>
        <path d="M56.0689032,78.9314665 L168.414474,78.9314665 C171.303068,78.9314665 173.644737,76.5897979 173.644737,73.7012033 L173.644737,5.23026316 C173.644737,2.34166858 171.303068,-5.30626216e-16 168.414474,0 L6.270052,0 L6.270052,3.55271368e-15 C3.38145742,4.08333989e-15 1.03978884,2.34166858 1.03978884,5.23026316 L1.03978884,5.23026316 L1.03978884,73.7012033 C1.03978884,76.5897979 3.38145742,78.9314665 6.270052,78.9314665 L12.1764078,78.9314665 L1.20932649,106.010805 C0.539857778,107.663822 0.758825053,109.544033 1.79024211,110.998967 C3.46080472,113.355489 6.72540239,113.91157 9.08192508,112.241007 L9.08192508,112.241007 L56.0689032,78.9314665 Z" id="path-2"></path>
    </defs>
    <g id="Page-1" stroke="none" stroke-width="1" fill="none" fill-rule="evenodd">
        <g id="HOME" transform="translate(-1083.000000, -625.000000)">
            <g id="Host-Event" transform="translate(0.000000, 475.000000)">
                <g id="Share-Image" transform="translate(1083.000000, 150.000000)">
                    <g id="Group">
                        <g id="Combined-Shape" transform="translate(113.016039, 123.483325) scale(-1, 1) translate(-113.016039, -123.483325) ">
                            <use fill="#F7F7F7" fill-rule="evenodd" xlink:href="#path-1"></use>
                            <path stroke="#D93044" stroke-width="4.18421053" d="M59.5617677,156.70207 L102.467283,137.395485 L167.772585,137.395485 C169.505742,137.395485 170.910743,135.990484 170.910743,134.257327 L170.910743,93.0986842 C170.910743,91.3655275 169.505742,89.9605263 167.772585,89.9605263 L58.2594942,89.9605263 C56.5263374,89.9605263 55.1213363,91.3655275 55.1213363,93.0986842 L55.1213363,134.257327 C55.1213363,135.990484 56.5263374,137.395485 58.2594942,137.395485 L67.6761164,137.395485 L55.8453874,151.8529 C55.0915455,152.774111 54.9237978,154.042529 55.4122522,155.128034 C56.1234511,156.708549 57.9812524,157.413269 59.5617677,156.70207 Z"></path>
                        </g>
                        <g id="Combined-Shape">
                            <use fill="#F7F7F7" fill-rule="evenodd" xlink:href="#path-2"></use>
                            <path stroke="#D93044" stroke-width="4.18421053" d="M7.87199661,110.534263 L55.4025706,76.8393612 L168.414474,76.8393612 C170.14763,76.8393612 171.552632,75.4343601 171.552632,73.7012033 L171.552632,5.23026316 C171.552632,3.49710641 170.14763,2.09210526 168.414474,2.09210526 L6.270052,2.09210526 C4.53689525,2.09210526 3.13189411,3.49710641 3.13189411,5.23026316 L3.13189411,73.7012033 C3.13189411,75.4343601 4.53689525,76.8393612 6.270052,76.8393612 L15.2808772,76.8393612 L3.14843745,106.796141 C2.74675623,107.787951 2.87813659,108.916078 3.49698682,109.789038 C4.49932439,111.202952 6.45808299,111.5366 7.87199661,110.534263 Z"></path>
                        </g>
                    </g>
                </g>
            </g>
        </g>
    </g>
</svg>